Coordinates
version=1
nRows=8
nColumns=33
inDegrees=yes

Units are S.I. units (second, meters, Newtons, ...)
Angles are in degrees.

endheader
time	ground_thorax_rot_x	ground_thorax_rot_y	ground_thorax_rot_z	ground_thorax_tx	ground_thorax_ty	ground_thorax_tz	clav_prot_r	clav_elev_r	scapula_abduction_r	scapula_elevation_r	scapula_upward_rot_r	scapula_winging_r	shoulder_elv_r	plane_of_elev_r	axial_rot_r	elbow_flexion_r	pro_sup_r	wrist_flex_r	wrist_dev_r	clav_prot_l	clav_elev_l	scapula_abduction_l	scapula_elevation_l	scapula_upward_rot_l	scapula_winging_l	shoulder_elv_l	plane_of_elev_l	axial_rot_l	elbow_flexion_l	pro_sup_l	wrist_flex_l	wrist_dev_l
      2.89000000	      0.90434944	      8.73717500	     -0.44983778	     -0.18236170	      1.00098484	      0.01478022	    -19.27160970	     -9.52653146	    -24.85092699	     -5.69133619	      9.01054826	      2.55257583	     63.41964314	    -52.51527693	     59.83834820	     82.68618948	     24.58523948	     33.03479589	    -21.15423005	     -2.62464650	     -2.73524069	      2.04007654	     -4.92020816	     -3.76193870	     -0.76812770	     47.86963022	    -46.64901740	    -19.80038350	     80.37743327	     22.34436187	    -16.56774650	    -24.99999983
      2.90000000	      0.84670123	      8.80525260	     -0.34687370	     -0.18230619	      1.00084743	      0.01461856	    -19.28535906	     -9.50198279	    -24.84601433	     -5.68906115	      9.06704384	      2.52694543	     63.46459649	    -52.40648320	     59.84141143	     83.01426605	     24.54194613	     33.02695630	    -21.10292865	     -2.63114905	     -2.70275606	      2.03515244	     -4.92552942	     -3.70181028	     -0.74950013	     47.89853760	    -46.59071721	    -19.75116173	     80.70297626	     22.30868325	    -16.54113413	    -24.99999983
      2.91000000	      0.79687389	      8.82312394	     -0.26343342	     -0.18228109	      1.00078482	      0.01452580	    -19.31246029	     -9.51774494	    -24.84782211	     -5.72919937	      9.13700485	      2.51717904	     63.49462351	    -52.25796013	     59.77529511	     83.39558147	     24.43190092	     32.92152827	    -20.98828329	     -2.61753150	     -2.67370750	      2.00179530	     -4.93693827	     -3.66414964	     -0.72859163	     47.93297999	    -46.52355303	    -19.70137760	     80.99838642	     22.25792544	    -16.45461783	    -24.99999983
      2.92000000	      0.69404312	      9.00589032	     -0.34326812	     -0.18247755	      1.00094948	      0.01442146	    -19.45613159	     -9.65323237	    -25.27460611	     -5.73322091	      8.76120342	      2.65918351	     63.62346388	    -51.73146186	     59.39250454	     84.15208102	     22.95613674	     30.42937985	    -18.88755809	     -2.38996959	     -2.73801515	      1.66687349	     -4.97474170	     -3.89405629	     -0.69241111	     48.10912466	    -46.19540500	    -19.11897518	     81.42884927	     21.68274574	    -14.81574379	    -24.99999983
      2.93000000	      0.64778440	      9.04594497	     -0.13750712	     -0.18254123	      1.00145014	      0.01424790	    -19.45216480	     -9.69739325	    -25.22281991	     -5.79689665	      8.83004112	      2.65958915	     63.63852080	    -51.62583254	     59.33732544	     84.25878014	     22.94452553	     30.43794756	    -18.89127922	     -2.39325502	     -2.77167158	      1.64195171	     -4.92307857	     -3.84577166	     -0.69222240	     48.12336296	    -46.11087990	    -19.10578802	     81.49350825	     21.67552526	    -14.81462546	    -24.99999983
      2.94000000	      0.58225836	      9.17359306	     -0.21441589	     -0.18259837	      1.00102886	      0.01420883	    -19.59538816	     -9.73197553	    -25.59885301	     -5.74818235	      8.57005477	      2.73221338	     63.82571351	    -51.08820548	     58.94701725	     85.26140497	     21.90225873	     28.56427187	    -16.93379955	     -2.22377369	     -2.72712977	      1.38033203	     -4.99926778	     -3.92491392	     -0.62023306	     48.21065701	    -45.81825918	    -18.67137642	     82.08039461	     21.07814453	    -13.18950158	    -24.99653410
      2.95000000	      0.53554968	      9.19156044	     -0.07955605	     -0.18259642	      1.00112052	      0.01401448	    -19.61034119	     -9.77905027	    -25.55912658	     -5.82620290	      8.66765778	      2.73130881	     63.85028238	    -50.92366683	     58.84940540	     85.56766022	     21.85200774	     28.54541048	    -16.88668089	     -2.21785203	     -2.71859422	      1.34532038	     -4.98028288	     -3.85972117	     -0.59813043	     48.22794943	    -45.71110537	    -18.64351883	     82.38693600	     21.03676778	    -13.14546252	    -24.99999983
      2.96000000	      0.48793602	      9.22551044	     -0.02161854	     -0.18258226	      1.00111473	      0.01378317	    -19.63420948	     -9.85738517	    -25.53069653	     -5.93143011	      8.75952631	      2.74457908	     63.82999067	    -50.72292802	     58.65129436	     85.91919803	     21.71485706	     28.37033363	    -16.70660356	     -2.20935808	     -2.71557909	      1.29765788	     -4.94907618	     -3.77714848	     -0.57188784	     48.24603227	    -45.53701242	    -18.57527049	     82.77441552	     20.94959844	    -13.00176014	    -24.98031885
